<svg width="136" height="136" viewBox="0 0 136 136" fill="none" xmlns="http://www.w3.org/2000/svg">
<g clip-path="url(#clip0_3848_2)">
<path d="M101.864 51.272C101.864 50.456 101.547 49.8213 100.912 49.368L69.632 25.16C68.7253 24.4347 67.728 24.4347 66.64 25.16L36.448 49.368C35.904 49.8213 35.632 50.456 35.632 51.272V94.928C35.632 95.654 35.8587 96.2427 36.312 96.696C36.7653 97.1493 37.3093 97.3767 37.944 97.3767H55.896C56.6213 97.3767 57.2107 97.1498 57.664 96.696C58.1173 96.2427 58.344 95.654 58.344 94.928V68.1362H79.016V94.9278C79.016 95.6538 79.2427 96.2424 79.696 96.6958C80.1493 97.1491 80.7387 97.3764 81.464 97.3764H99.416C100.141 97.3764 100.731 97.1496 101.184 96.6958C101.637 96.242 101.864 95.6538 101.864 94.9278V51.272ZM68 0C77.3387 0 86.156 1.79067 94.452 5.372C102.748 8.95333 109.956 13.804 116.076 19.924C122.196 26.044 127.047 33.252 130.628 41.548C134.209 49.844 136 58.6613 136 68C136 74.256 135.184 80.2853 133.552 86.088C131.919 91.89 129.631 97.3073 126.684 102.34C123.737 107.372 120.201 111.951 116.076 116.076C111.951 120.201 107.372 123.738 102.34 126.684C97.3076 129.631 91.8907 131.92 86.0876 133.552C80.2853 135.184 74.256 136 68 136C61.744 136 55.7147 135.184 49.912 133.552C44.1093 131.919 38.692 129.631 33.66 126.684C28.628 123.737 24.0493 120.201 19.924 116.076C15.7987 111.951 12.2627 107.372 9.316 102.34C6.36933 97.3076 4.08 91.8907 2.448 86.0878C0.816 80.2853 0 74.256 0 68C0 61.744 0.816 55.7147 2.448 49.912C4.08 44.1093 6.36933 38.692 9.316 33.66C12.2627 28.628 15.7987 24.0493 19.924 19.924C24.0493 15.7987 28.628 12.2627 33.66 9.316C38.692 6.36933 44.1093 4.08 49.912 2.448C55.7147 0.816 61.744 0 68 0Z" fill="#1A4480"/>
</g>
<defs>
<clipPath id="clip0_3848_2">
<rect width="136" height="136" fill="white"/>
</clipPath>
</defs>
</svg>
